<svg xmlns="http://www.w3.org/2000/svg" xml:space="preserve" id="Ebene_1" x="0" y="0" style="enable-background:new 0 0 256 256" version="1.1" viewBox="0 0 256 256"><style>.st0{fill:#37379b}.st1{fill:#fff}</style><path d="M0 0h256v256H0z" class="st0"/><path d="M219.7 55.8H36.3c-3.3 0-6.1 2.7-6.1 6V194.1c0 3.3 2.7 6.1 6 6.1h183.4c3.3 0 6.1-2.6 6.1-6V61.9c.1-3.3-2.6-6-6-6.1.1 0 .1 0 0 0zm-6.1 21.1H90.1V66.3h123.5v10.6z" class="st1"/><circle cx="47.7" cy="71.6" r="5.3" style="fill:#b15346"/><circle cx="79.5" cy="71.7" r="5.3" style="fill:#75b752" transform="rotate(-80.781 79.531 71.713)"/><circle cx="63.6" cy="71.6" r="5.3" style="fill:#d6924a"/><path d="M42.4 86.8h171.1v101.3H42.4z" class="st0"/><path d="M171.4 106.4H84.6l43.4 38.7zM172.3 162.7v-50.5L144 137.4z" class="st1"/><path d="m171.4 168.5-31.1-27.7-10.6 9.5c-.5.4-1.1.6-1.6.6s-1.2-.2-1.6-.6l-10.6-9.5-31.1 27.7h86.6zM112 137.4l-28.4-25.2v50.5z" class="st1"/></svg>
