<?xml version="1.0" encoding="UTF-8"?><svg xmlns="http://www.w3.org/2000/svg" viewBox="0 0 12 16"><defs><style>.d{fill:#efefef;}.e{fill:#999;}.f{fill:#b9b9b9;}.g{fill:#fff;isolation:isolate;opacity:.65;}</style></defs><g id="a"/><g id="b"><g id="c"><g><g><path class="d" d="M0,0V16H12V4L8,0H0Z"/><path class="g" d="M8,3.98V0l4,4-4-.02Z"/><path class="f" d="M10.99,5v5l-4-5h4Z"/><path class="e" d="M0,0V16H12V4h0L8.01,0H0ZM.99,1H6.99v4h4V15H.99V1Zm7.01,.41l2.59,2.59h-2.59V1.41h0Z"/></g><g><path d="M2.72,8.52l3.28,2.19,3.28-2.19h.01c-.02-.33-.29-.59-.62-.59H3.33c-.33,0-.6,.26-.62,.59h.01Z"/><path d="M6.14,11.22s-.09,.04-.14,.04-.1-.01-.14-.04l-3.15-2.1v3.42c0,.35,.28,.63,.63,.63h5.33c.35,0,.63-.28,.63-.63v-3.42l-3.15,2.1Z"/></g></g></g></g></svg>
